<?xml version="1.0" encoding="utf-8"?>
<svg id="master-artboard" viewBox="0 0 469.87646484375 113.95790100097656" version="1.1" xmlns="http://www.w3.org/2000/svg" x="0px" y="0px" style="enable-background:new 0 0 336 235.2;" width="469.87646484375px" height="113.95790100097656px" xmlns:xlink="http://www.w3.org/1999/xlink"><rect id="ee-background" x="0" y="0" width="469.87646484375" height="113.95790100097656" style="fill: white; fill-opacity: 0; pointer-events: none;"/><g transform="matrix(0.9765627384185791, 0, 0, 0.9765627384185791, -253.79844665527344, -321.02459716796875)"><metadata id="metadata684270">
    
  </metadata><linearGradient spreadMethod="pad" y2="30%" x2="-10%" y1="120%" x1="30%" id="3d_gradient2-logo-42811a82-b108-47c5-8e5b-88f5c8fb5da9">
    <stop id="stop684245" stop-opacity="1" stop-color="#ffffff" offset="0%"/>
    <stop id="stop684247" stop-opacity="1" stop-color="#000000" offset="100%"/>
  </linearGradient><linearGradient gradientTransform="rotate(-30)" spreadMethod="pad" y2="30%" x2="-10%" y1="120%" x1="30%" id="3d_gradient3-logo-42811a82-b108-47c5-8e5b-88f5c8fb5da9">
    <stop id="stop684250" stop-opacity="1" stop-color="#ffffff" offset="0%"/>
    <stop id="stop684252" stop-opacity="1" stop-color="#cccccc" offset="50%"/>
    <stop id="stop684254" stop-opacity="1" stop-color="#000000" offset="100%"/>
  </linearGradient><g id="logo-group">
    <image id="container" x="272" y="144" width="480" height="480" style="display: none;" transform="translate(0 0)" xlink:href=""/>
    <g id="logo-center" transform="translate(-2.2737367544323206e-13 0)">
      <image id="icon_container" x="0" y="0" style="display: none;" xlink:href=""/>
      <g id="slogan" style="font-style:normal;font-weight:400;font-size:32px;line-height:1;font-family:Lato;font-variant-ligatures:none;text-align:center;text-anchor:middle" transform="translate(0 0)"/>
      <g id="title" style="font-style:normal;font-weight:300;font-size:72px;line-height:1;font-family:'Uni Neue';font-variant-ligatures:none;text-align:center;text-anchor:middle" transform="translate(0 0)">
        <path id="path684273" style="font-style:normal;font-weight:300;font-size:72px;line-height:1;font-family:'Uni Neue';font-variant-ligatures:none;text-align:center;text-anchor:middle" d="m 308.825,0 c 0.288,0 0.432,-0.144 0.432,-0.432 V -1.8 c 0,-0.288 -0.144,-0.432 -0.432,-0.432 h -24.768 v -48.816 c 0,-0.288 -0.144,-0.432 -0.432,-0.432 h -1.512 c -0.288,0 -0.504,0.144 -0.504,0.432 v 50.616 c 0,0.288 0.216,0.432 0.504,0.432 z" stroke-width="0" stroke-linejoin="miter" stroke-miterlimit="2" fill="#e3e5e8" stroke="#e3e5e8" transform="translate(0 303.1642) translate(319.29641000000004 59.47160000000001) scale(0.83) translate(-281.609 51.48)"/>
        <path id="path684275" style="font-style:normal;font-weight:300;font-size:72px;line-height:1;font-family:'Uni Neue';font-variant-ligatures:none;text-align:center;text-anchor:middle" d="m 313.01112,0 c 0.216,0 0.36,-0.144 0.432,-0.36 l 5.904,-15.768 h 24.12 l 5.832,15.768 c 0.144,0.216 0.28801,0.36 0.50401,0.36 h 1.656 c 0.28799,0 0.43199,-0.216 0.35999,-0.504 l -18.936,-50.616 c -0.072,-0.216 -0.288,-0.36 -0.504,-0.36 h -2.01599 c -0.144,0 -0.36001,0.144 -0.43201,0.36 l -18.936,50.616 c -0.072,0.288 0.072,0.504 0.36,0.504 z m 18.288,-48.528 h 0.216 l 11.16,30.168 h -22.536 z" stroke-width="0" stroke-linejoin="miter" stroke-miterlimit="2" fill="#d9dbde" stroke="#d9dbde" transform="translate(0 303.1642) translate(343.6716591 59.47160000000001) scale(0.83) translate(-310.97677 51.48)"/>
        <path id="path684277" style="font-style:normal;font-weight:300;font-size:72px;line-height:1;font-family:'Uni Neue';font-variant-ligatures:none;text-align:center;text-anchor:middle" d="m 361.67187,0 c 0.216,0 0.43201,-0.144 0.43201,-0.432 l -0.072,-47.16 31.17599,47.304 c 0.072,0.216 0.36001,0.288 0.57601,0.288 h 1.72799 c 0.288,0 0.504,-0.144 0.504,-0.432 v -50.616 c 0,-0.288 -0.216,-0.432 -0.504,-0.432 h -1.44 c -0.28799,0 -0.50399,0.144 -0.50399,0.432 l 0.072,47.304 -31.176,-47.448 c -0.072,-0.216 -0.36,-0.288 -0.50401,-0.288 h -1.8 c -0.288,0 -0.504,0.144 -0.504,0.432 v 50.616 c 0,0.288 0.216,0.432 0.504,0.432 z" stroke-width="0" stroke-linejoin="miter" stroke-miterlimit="2" fill="#cfd0d3" stroke="#cfd0d3" transform="translate(0 303.1642) translate(384.07531209999996 59.47160000000001) scale(0.83) translate(-359.65587 51.48)"/>
        <path id="path684279" style="font-style:normal;font-weight:300;font-size:72px;line-height:1;font-family:'Uni Neue';font-variant-ligatures:none;text-align:center;text-anchor:middle" d="m 427.56763,0 c 10.72799,0 17.63999,-6.48 17.63999,-17.712 v -15.84 c 0,-11.16 -6.84,-17.928 -17.63999,-17.928 h -17.06401 c -0.288,0 -0.504,0.144 -0.504,0.432 v 50.616 c 0,0.288 0.216,0.432 0.504,0.432 z m -15.12,-49.248 h 15.048 c 9.50399,0 15.264,5.76 15.264,15.696 v 15.84 c 0,9.936 -5.76001,15.408 -15.264,15.408 h -15.048 z" stroke-width="0" stroke-linejoin="miter" stroke-miterlimit="2" fill="#c4c6c9" stroke="#c4c6c9" transform="translate(0 303.1642) translate(425.8606246 59.47160000000001) scale(0.83) translate(-409.99962 51.48)"/>
        <path id="path684281" style="font-style:normal;font-weight:300;font-size:72px;line-height:1;font-family:'Uni Neue';font-variant-ligatures:none;text-align:center;text-anchor:middle" d="m 459.83825,-51.048 c 0,-0.288 -0.216,-0.432 -0.432,-0.432 h -1.512 c -0.288,0 -0.504,0.144 -0.504,0.432 v 50.616 c 0,0.288 0.216,0.432 0.504,0.432 h 1.512 c 0.216,0 0.432,-0.144 0.432,-0.432 z" stroke-width="0" stroke-linejoin="miter" stroke-miterlimit="2" fill="#babcbe" stroke="#babcbe" transform="translate(0 303.1642) translate(465.1948475 59.47160000000001) scale(0.83) translate(-457.39025 51.48)"/>
        <path id="path684283" style="font-style:normal;font-weight:300;font-size:72px;line-height:1;font-family:'Uni Neue';font-variant-ligatures:none;text-align:center;text-anchor:middle" d="m 475.85937,0 c 0.216,0 0.43201,-0.144 0.43201,-0.432 l -0.072,-47.16 31.17599,47.304 c 0.072,0.216 0.36001,0.288 0.57601,0.288 h 1.72799 c 0.288,0 0.504,-0.144 0.504,-0.432 v -50.616 c 0,-0.288 -0.216,-0.432 -0.504,-0.432 h -1.44 c -0.28799,0 -0.50399,0.144 -0.50399,0.432 l 0.072,47.304 -31.176,-47.448 c -0.072,-0.216 -0.36,-0.288 -0.50401,-0.288 h -1.8 c -0.288,0 -0.504,0.144 -0.504,0.432 v 50.616 c 0,0.288 0.216,0.432 0.504,0.432 z" stroke-width="0" stroke-linejoin="miter" stroke-miterlimit="2" fill="#b0b2b4" stroke="#b0b2b4" transform="translate(0 303.1642) translate(478.8509371 59.47160000000001) scale(0.83) translate(-473.84337 51.48)"/>
        <path id="path684285" style="font-style:normal;font-weight:300;font-size:72px;line-height:1;font-family:'Uni Neue';font-variant-ligatures:none;text-align:center;text-anchor:middle" d="m 557.81112,-6.192 c 0.144,-0.144 0.216,-0.36 0.216,-0.576 v -19.368 c 0,-0.288 -0.216,-0.432 -0.43199,-0.432 h -17.06401 c -0.288,0 -0.432,0.144 -0.432,0.432 v 1.368 c 0,0.288 0.144,0.432 0.432,0.432 h 15.12 v 16.992 c -4.24799,3.816 -9.648,5.76 -15.336,5.76 -10.22399,0 -15.552,-6.12 -15.552,-14.832 v -18.72 c 0,-8.712 5.25601,-14.832 15.336,-14.832 5.47201,0 11.01601,1.872 15.192,5.256 0.288,0.144 0.504,0.072 0.648,-0.144 l 0.79201,-1.08 c 0.216,-0.216 0.216,-0.504 -0.072,-0.648 -4.75201,-3.744 -10.72801,-5.616 -16.56001,-5.616 -11.232,0 -17.712,6.912 -17.712,17.064 v 18.72 c 0,10.08 6.552,17.136 17.928,17.136 6.48,0 12.672,-2.304 17.496,-6.912 z" stroke-width="0" stroke-linejoin="miter" stroke-miterlimit="2" fill="#a6a7aa" stroke="#a6a7aa" transform="translate(0 303.1642) translate(519.1422496 58.874) scale(0.83) translate(-522.38712 52.2)"/>
        <path id="path684287" style="font-style:normal;font-weight:300;font-size:72px;line-height:1;font-family:'Uni Neue';font-variant-ligatures:none;text-align:center;text-anchor:middle" d="m 587.33788,-51.48 c -0.288,0 -0.432,0.144 -0.432,0.432 v 50.616 c 0,0.288 0.144,0.432 0.432,0.432 h 1.51199 c 0.288,0 0.43201,-0.144 0.43201,-0.432 v -19.584 h 14.03999 c 11.232,0 17.568,-5.76 17.568,-15.696 0,-9.792 -6.264,-15.768 -17.568,-15.768 z m 1.944,29.16 v -26.928 h 13.82399 c 10.15201,0 15.408,4.896 15.408,13.536 0,8.64 -5.25599,13.392 -15.408,13.392 z" stroke-width="0" stroke-linejoin="miter" stroke-miterlimit="2" fill="#9c9d9f" stroke="#9c9d9f" transform="translate(0 303.1642) translate(572.6928204000001 59.47160000000001) scale(0.83) translate(-586.90588 51.48)"/>
        <path id="path684289" style="font-style:normal;font-weight:300;font-size:72px;line-height:1;font-family:'Uni Neue';font-variant-ligatures:none;text-align:center;text-anchor:middle" d="m 623.933,0 c 0.216,0 0.36,-0.144 0.432,-0.36 l 5.904,-15.768 h 24.12 l 5.832,15.768 c 0.144,0.216 0.288,0.36 0.504,0.36 h 1.656 c 0.288,0 0.432,-0.216 0.36,-0.504 L 643.805,-51.12 c -0.072,-0.216 -0.288,-0.36 -0.504,-0.36 h -2.016 c -0.144,0 -0.36,0.144 -0.432,0.36 L 621.917,-0.504 C 621.845,-0.216 621.989,0 622.277,0 Z m 18.288,-48.528 h 0.216 l 11.16,30.168 h -22.536 z" stroke-width="0" stroke-linejoin="miter" stroke-miterlimit="2" fill="#919395" stroke="#919395" transform="translate(0 303.1642) translate(601.7368195000001 59.47160000000001) scale(0.83) translate(-621.89865 51.48)"/>
        <path id="path684291" style="font-style:normal;font-weight:300;font-size:72px;line-height:1;font-family:'Uni Neue';font-variant-ligatures:none;text-align:center;text-anchor:middle" d="m 703.77987,-6.192 c 0.144,-0.144 0.216,-0.36 0.216,-0.576 v -19.368 c 0,-0.288 -0.216,-0.432 -0.43199,-0.432 h -17.06401 c -0.288,0 -0.432,0.144 -0.432,0.432 v 1.368 c 0,0.288 0.144,0.432 0.432,0.432 h 15.12 v 16.992 c -4.24799,3.816 -9.648,5.76 -15.336,5.76 -10.22399,0 -15.552,-6.12 -15.552,-14.832 v -18.72 c 0,-8.712 5.25601,-14.832 15.336,-14.832 5.47201,0 11.01601,1.872 15.192,5.256 0.288,0.144 0.504,0.072 0.648,-0.144 l 0.79201,-1.08 c 0.216,-0.216 0.216,-0.504 -0.072,-0.648 -4.75201,-3.744 -10.72801,-5.616 -16.56001,-5.616 -11.232,0 -17.712,6.912 -17.712,17.064 v 18.72 c 0,10.08 6.552,17.136 17.928,17.136 6.48,0 12.672,-2.304 17.496,-6.912 z" stroke-width="0" stroke-linejoin="miter" stroke-miterlimit="2" fill="#87888a" stroke="#87888a" transform="translate(0 303.1642) translate(640.2963121000003 58.874) scale(0.83) translate(-668.35587 52.2)"/>
        <path id="path684293" style="font-style:normal;font-weight:300;font-size:72px;line-height:1;font-family:'Uni Neue';font-variant-ligatures:none;text-align:center;text-anchor:middle" d="m 718.307,-25.128 h 24.624 c 0.288,0 0.504,-0.144 0.504,-0.432 v -1.368 c 0,-0.288 -0.216,-0.432 -0.504,-0.432 h -24.624 v -21.888 h 26.136 c 0.288,0 0.432,-0.144 0.432,-0.432 v -1.368 c 0,-0.288 -0.144,-0.432 -0.432,-0.432 h -28.08 c -0.288,0 -0.504,0.144 -0.504,0.432 v 50.616 c 0,0.288 0.216,0.432 0.504,0.432 h 29.16 c 0.288,0 0.432,-0.144 0.432,-0.432 V -1.8 c 0,-0.288 -0.144,-0.432 -0.432,-0.432 h -27.216 z" stroke-width="0" stroke-linejoin="miter" stroke-miterlimit="2" fill="#7d7e80" stroke="#7d7e80" transform="translate(0 303.1642) translate(679.7239100000003 59.47160000000001) scale(0.83) translate(-715.859 51.48)"/>
      </g>
      <image id="icon" x="0" y="0" style="display: none;" xlink:href=""/>
    </g>
  </g></g></svg>